<svg width="164" height="117" viewBox="0 0 164 117" fill="none" xmlns="http://www.w3.org/2000/svg">
<g opacity="0.06">
<path fill-rule="evenodd" clip-rule="evenodd" d="M128.957 32.0261C134.873 23.7367 146.05 14.8246 161.259 7.39133C165.22 5.46102 163.438 -0.516709 159.071 0.03592C127.097 4.08334 106.369 18.0859 95.0521 38.9067C90.9572 46.5262 88.1634 54.776 86.7861 63.3158C85.8598 68.8654 85.6185 73.0296 85.6185 77.8398C85.6185 88.1614 89.7188 98.0602 97.0172 105.359C104.316 112.657 114.214 116.757 124.536 116.757C134.858 116.757 144.756 112.657 152.055 105.359C159.353 98.0602 163.454 88.1614 163.454 77.8398C163.454 56.3496 145.746 38.9067 125.408 38.9067C126.482 35.9646 126.731 35.1317 128.957 32.0261ZM43.3385 32.0261C49.254 23.7367 60.4311 14.8246 75.6401 7.39133C79.6019 5.46102 77.8195 -0.516709 73.4529 0.03592C41.4783 4.08334 20.7508 18.0859 9.43361 38.9067C5.33867 46.5262 2.54489 54.776 1.16753 63.3158C0.241289 68.8654 0 73.0296 0 77.8398C-7.61557e-08 82.9505 1.00663 88.0112 2.96242 92.7329C4.91821 97.4546 7.78485 101.745 11.3987 105.359C15.0125 108.972 19.3027 111.839 24.0244 113.795C28.7461 115.751 33.8068 116.757 38.9175 116.757C44.0282 116.757 49.0889 115.751 53.8106 113.795C58.5323 111.839 62.8225 108.972 66.4364 105.359C70.0502 101.745 72.9168 97.4546 74.8726 92.7329C76.8284 88.0112 77.835 82.9505 77.835 77.8398C77.835 56.3496 60.1276 38.9067 39.7893 38.9067C40.8634 35.9646 41.1125 35.1317 43.3385 32.0261Z" fill="#2B2B2B"/>
</g>
</svg>
